<svg xmlns="http://www.w3.org/2000/svg" viewBox="0 0 327.13 327.13"><g id="Camada_2" data-name="Camada 2"><g id="Camada_1-2" data-name="Camada 1"><rect width="327.13" height="327.13" style="fill:#fff"/><rect x="24.09" y="113.35" width="11.16" height="11.16" style="fill:#e2162f"/><rect x="24.09" y="157.99" width="11.16" height="55.79" style="fill:#e2162f"/><polygon points="35.25 24.09 24.09 24.09 24.09 91.04 24.09 91.04 24.09 102.19 35.25 102.19 35.25 102.19 46.41 102.19 46.41 91.04 35.25 91.04 35.25 35.25 46.41 35.25 46.41 24.09 35.25 24.09 35.25 24.09" style="fill:#e2162f"/><polygon points="35.25 135.67 24.09 135.67 24.09 146.83 35.25 146.83 35.25 146.83 46.41 146.83 46.41 135.67 35.25 135.67 35.25 135.67" style="fill:#e2162f"/><polygon points="35.25 224.93 24.09 224.93 24.09 247.25 24.09 280.72 24.09 303.04 35.25 303.04 35.25 303.04 46.41 303.04 46.41 291.88 35.25 291.88 35.25 280.72 35.25 247.25 35.25 236.09 46.41 236.09 46.41 224.93 35.25 224.93 35.25 224.93" style="fill:#e2162f"/><rect x="46.41" y="146.83" width="11.16" height="11.16" style="fill:#e2162f"/><rect x="46.41" y="202.62" width="11.16" height="11.16" style="fill:#e2162f"/><polygon points="57.56 24.09 46.41 24.09 46.41 35.25 57.56 35.25 57.56 35.25 68.72 35.25 68.72 24.09 57.56 24.09 57.56 24.09" style="fill:#e2162f"/><polygon points="57.56 46.41 46.41 46.41 46.41 79.88 57.56 79.88 57.56 79.88 68.72 79.88 68.72 46.41 57.56 46.41 57.56 46.41" style="fill:#e2162f"/><polygon points="57.56 91.04 46.41 91.04 46.41 102.19 57.56 102.19 57.56 102.19 68.72 102.19 68.72 91.04 57.56 91.04 57.56 91.04" style="fill:#e2162f"/><polygon points="57.56 113.35 46.41 113.35 46.41 146.83 57.56 146.83 57.56 135.67 68.72 135.67 68.72 113.35 57.56 113.35 57.56 113.35" style="fill:#e2162f"/><polygon points="57.56 169.14 46.41 169.14 46.41 180.3 57.56 180.3 57.56 180.3 68.72 180.3 68.72 169.14 57.56 169.14 57.56 169.14" style="fill:#e2162f"/><polygon points="57.56 224.93 46.41 224.93 46.41 236.09 57.56 236.09 57.56 236.09 68.72 236.09 68.72 224.93 57.56 224.93 57.56 224.93" style="fill:#e2162f"/><polygon points="57.56 247.25 46.41 247.25 46.41 280.72 57.56 280.72 57.56 280.72 68.72 280.72 68.72 247.25 57.56 247.25 57.56 247.25" style="fill:#e2162f"/><polygon points="57.56 291.88 46.41 291.88 46.41 303.04 57.56 303.04 57.56 303.04 68.72 303.04 68.72 291.88 57.56 291.88 57.56 291.88" style="fill:#e2162f"/><rect x="68.72" y="46.41" width="11.16" height="33.47" style="fill:#e2162f"/><rect x="68.72" y="157.99" width="11.16" height="22.32" style="fill:#e2162f"/><rect x="68.72" y="247.25" width="11.16" height="33.47" style="fill:#e2162f"/><polygon points="79.88 24.09 68.72 24.09 68.72 35.25 79.88 35.25 91.04 35.25 91.04 91.04 79.88 91.04 68.72 91.04 68.72 102.19 79.88 102.19 91.04 102.19 102.19 102.19 102.19 91.04 102.19 91.04 102.19 24.09 91.04 24.09 79.88 24.09" style="fill:#e2162f"/><polygon points="79.88 113.35 68.72 113.35 68.72 135.67 79.88 135.67 79.88 124.51 91.04 124.51 102.19 124.51 102.19 113.35 91.04 113.35 79.88 113.35" style="fill:#e2162f"/><rect x="79.88" y="146.83" width="11.16" height="11.16" style="fill:#e2162f"/><polygon points="79.88 213.78 91.04 213.78 102.19 213.78 102.19 202.62 91.04 202.62 91.04 191.46 79.88 191.46 79.88 213.78" style="fill:#e2162f"/><polygon points="79.88 224.93 68.72 224.93 68.72 236.09 79.88 236.09 91.04 236.09 91.04 247.25 91.04 280.72 91.04 291.88 79.88 291.88 68.72 291.88 68.72 303.04 79.88 303.04 91.04 303.04 91.04 303.04 102.19 303.04 102.19 280.72 102.19 247.25 102.19 224.93 91.04 224.93 79.88 224.93" style="fill:#e2162f"/><rect x="91.04" y="135.67" width="11.16" height="11.16" style="fill:#e2162f"/><rect x="91.04" y="157.99" width="11.16" height="11.16" style="fill:#e2162f"/><rect x="91.04" y="180.3" width="11.16" height="11.16" style="fill:#e2162f"/><rect x="102.2" y="202.62" width="11.16" height="11.16" style="fill:#e2162f"/><rect x="113.35" y="157.99" width="11.16" height="11.16" style="fill:#e2162f"/><polygon points="124.51 180.3 113.35 180.3 102.2 180.3 102.2 191.46 113.35 191.46 113.35 202.62 124.51 202.62 124.51 180.3" style="fill:#e2162f"/><rect x="113.35" y="213.78" width="11.16" height="11.16" style="fill:#e2162f"/><rect x="113.35" y="291.88" width="11.16" height="11.16" style="fill:#e2162f"/><polygon points="135.67 146.83 135.67 146.83 124.51 146.83 124.51 157.99 135.67 157.99 146.83 157.99 146.83 146.83 146.83 146.83 157.99 146.83 157.99 146.83 157.99 157.99 169.14 157.99 169.14 146.83 169.14 124.51 157.99 124.51 157.99 135.67 146.83 135.67 146.83 124.51 135.67 124.51 135.67 113.35 124.51 113.35 124.51 146.83 135.67 146.83" style="fill:#e2162f"/><rect x="124.51" y="280.72" width="11.16" height="11.16" style="fill:#e2162f"/><rect x="135.67" y="35.25" width="11.16" height="11.16" style="fill:#e2162f"/><rect x="124.51" y="24.09" width="11.16" height="11.16" style="fill:#e2162f"/><rect x="135.67" y="169.14" width="11.16" height="11.16" style="fill:#e2162f"/><rect x="135.67" y="191.46" width="11.16" height="11.16" style="fill:#e2162f"/><rect x="135.67" y="291.88" width="11.16" height="11.16" style="fill:#e2162f"/><rect x="146.83" y="46.41" width="11.16" height="11.16" style="fill:#e2162f"/><rect x="157.99" y="57.56" width="11.16" height="11.16" style="fill:#e2162f"/><polygon points="124.51 79.88 124.51 68.72 135.67 68.72 146.83 68.72 146.83 57.56 135.67 57.56 135.67 46.41 124.51 46.41 113.35 46.41 113.35 91.04 113.35 91.04 113.35 113.35 124.51 113.35 124.51 91.04 124.51 91.04 135.67 91.04 135.67 102.19 146.83 102.19 146.83 91.04 146.83 79.88 135.67 79.88 124.51 79.88" style="fill:#e2162f"/><rect x="146.83" y="68.72" width="11.16" height="11.16" style="fill:#e2162f"/><rect x="146.83" y="113.35" width="11.16" height="11.16" style="fill:#e2162f"/><polygon points="146.83 224.93 146.83 213.78 135.67 213.78 135.67 236.09 124.51 236.09 113.35 236.09 113.35 247.25 124.51 247.25 135.67 247.25 135.67 247.25 146.83 247.25 146.83 258.41 135.67 258.41 135.67 247.25 124.51 247.25 113.35 247.25 113.35 280.72 124.51 280.72 124.51 258.41 135.67 258.41 135.67 269.56 146.83 269.56 146.83 258.41 157.99 258.41 157.99 269.56 169.14 269.56 169.14 258.41 157.99 258.41 157.99 247.25 157.99 236.09 169.14 236.09 169.14 224.93 157.99 224.93 146.83 224.93" style="fill:#e2162f"/><rect x="157.99" y="24.09" width="11.16" height="22.32" style="fill:#e2162f"/><polygon points="157.99 102.19 169.14 102.19 169.14 91.04 169.14 79.88 157.99 79.88 157.99 91.04 157.99 102.19" style="fill:#e2162f"/><rect x="157.99" y="169.14" width="11.16" height="11.16" style="fill:#e2162f"/><rect x="157.99" y="191.46" width="11.16" height="22.32" style="fill:#e2162f"/><rect x="157.99" y="280.72" width="11.16" height="22.32" style="fill:#e2162f"/><rect x="169.14" y="24.09" width="11.16" height="22.32" style="fill:#e2162f"/><polygon points="169.15 113.35 169.15 124.51 180.3 124.51 180.3 135.67 191.46 135.67 191.46 91.04 180.3 91.04 180.3 113.35 169.15 113.35" style="fill:#e2162f"/><polygon points="169.15 157.99 169.15 169.14 180.3 169.14 180.3 180.3 191.46 180.3 191.46 157.99 180.3 157.99 169.15 157.99" style="fill:#e2162f"/><rect x="169.14" y="180.3" width="11.16" height="11.16" style="fill:#e2162f"/><polygon points="180.3 202.62 169.15 202.62 169.15 213.78 169.15 224.93 180.3 224.93 191.46 224.93 191.46 213.78 180.3 213.78 180.3 202.62" style="fill:#e2162f"/><polygon points="180.3 258.41 169.15 258.41 169.15 280.72 169.15 291.88 180.3 291.88 180.3 280.73 191.46 280.73 191.46 269.57 180.3 269.57 180.3 258.41" style="fill:#e2162f"/><polygon points="180.3 79.88 169.15 79.88 169.15 91.04 180.3 91.04 180.3 79.88 191.46 79.88 191.46 46.41 180.3 46.41 180.3 79.88" style="fill:#e2162f"/><rect x="180.3" y="291.88" width="11.16" height="11.16" style="fill:#e2162f"/><polygon points="202.62 46.41 213.78 46.41 213.78 24.09 202.62 24.09 202.62 35.25 191.46 35.25 191.46 57.56 202.62 57.56 202.62 46.41" style="fill:#e2162f"/><polygon points="191.46 280.72 191.46 291.88 202.62 291.88 213.78 291.88 213.78 291.88 224.94 291.88 224.94 280.72 213.78 280.72 213.78 269.57 202.62 269.57 202.62 280.72 191.46 280.72" style="fill:#e2162f"/><rect x="202.62" y="57.56" width="11.16" height="11.16" style="fill:#e2162f"/><polygon points="202.62 102.19 213.78 102.19 213.78 91.04 213.78 79.88 202.62 79.88 191.46 79.88 191.46 91.04 202.62 91.04 202.62 102.19" style="fill:#e2162f"/><polygon points="213.78 124.51 213.78 113.35 202.62 113.35 191.46 113.35 191.46 124.51 202.62 124.51 213.78 124.51" style="fill:#e2162f"/><polygon points="213.78 146.83 213.78 135.67 202.62 135.67 191.46 135.67 191.46 146.83 202.62 146.83 213.78 146.83" style="fill:#e2162f"/><polygon points="224.94 24.09 224.94 91.04 224.94 91.04 224.94 102.19 236.09 102.19 247.25 102.19 247.25 91.04 236.09 91.04 236.09 35.25 247.25 35.25 247.25 24.09 236.09 24.09 224.94 24.09" style="fill:#e2162f"/><polygon points="224.94 113.35 224.94 124.51 236.09 124.51 236.09 135.67 247.25 135.67 247.25 113.35 236.09 113.35 224.94 113.35" style="fill:#e2162f"/><rect x="224.93" y="224.93" width="11.16" height="11.16" style="fill:#e2162f"/><polygon points="236.09 180.3 224.94 180.3 224.94 169.14 236.09 169.14 236.09 146.83 224.94 146.83 213.78 146.83 213.78 146.83 202.62 146.83 202.62 157.99 213.78 157.99 213.78 180.3 202.62 180.3 191.46 180.3 191.46 202.62 202.62 202.62 202.62 191.46 213.78 191.46 213.78 191.46 224.94 191.46 224.94 202.62 213.78 202.62 213.78 202.62 202.62 202.62 202.62 213.78 202.62 247.25 191.46 247.25 191.46 269.57 202.62 269.57 202.62 258.41 213.78 258.41 213.78 258.41 224.94 258.41 224.94 269.57 236.09 269.57 236.09 258.41 247.25 258.41 247.25 247.25 236.09 247.25 224.94 247.25 213.78 247.25 213.78 213.78 224.94 213.78 224.94 213.78 236.09 213.78 236.09 213.78 247.25 213.78 247.25 169.14 236.09 169.14 236.09 180.3" style="fill:#e2162f"/><rect x="236.09" y="280.72" width="11.16" height="22.32" style="fill:#e2162f"/><rect x="247.25" y="157.99" width="11.16" height="11.16" style="fill:#e2162f"/><path d="M258.41,224.93h11.16V213.78H247.25v55.79h11.16v11.15H247.25V303H303V247.25H269.57v11.16H258.41V247.25h11.16V236.09H258.41Zm11.16,55.79h11.15V269.57h11.16v22.31H269.57Z" style="fill:#e2162f"/><polygon points="269.57 79.88 280.73 79.88 280.73 46.41 269.57 46.41 258.41 46.41 247.25 46.41 247.25 79.88 258.41 79.88 269.57 79.88" style="fill:#e2162f"/><polygon points="269.57 146.83 269.57 135.67 258.41 135.67 247.25 135.67 247.25 146.83 258.41 146.83 269.57 146.83" style="fill:#e2162f"/><polygon points="258.41 180.3 247.25 180.3 247.25 213.78 258.41 213.78 258.41 191.46 269.57 191.46 269.57 169.14 258.41 169.14 258.41 180.3" style="fill:#e2162f"/><polygon points="269.57 113.35 258.41 113.35 247.25 113.35 247.25 124.51 258.41 124.51 269.57 124.51 280.73 124.51 280.73 113.35 269.57 113.35" style="fill:#e2162f"/><polygon points="280.73 157.99 269.57 157.99 269.57 169.14 280.73 169.14 280.73 191.46 291.88 191.46 291.88 202.62 303.04 202.62 303.04 180.3 291.88 180.3 291.88 169.14 303.04 169.14 303.04 146.83 291.88 146.83 291.88 157.99 280.73 157.99" style="fill:#e2162f"/><rect x="269.57" y="202.62" width="11.16" height="11.16" style="fill:#e2162f"/><polygon points="280.73 224.93 269.57 224.93 269.57 236.09 280.73 236.09 291.88 236.09 303.04 236.09 303.04 224.93 291.88 224.93 280.73 224.93" style="fill:#e2162f"/><polygon points="291.88 124.51 280.73 124.51 280.73 146.83 291.88 146.83 291.88 146.83 303.04 146.83 303.04 135.67 291.88 135.67 291.88 124.51" style="fill:#e2162f"/><polygon points="291.88 24.09 280.73 24.09 269.57 24.09 258.41 24.09 247.25 24.09 247.25 35.25 258.41 35.25 269.57 35.25 280.73 35.25 291.88 35.25 291.88 91.04 280.73 91.04 269.57 91.04 258.41 91.04 247.25 91.04 247.25 102.19 258.41 102.19 269.57 102.19 280.73 102.19 291.88 102.19 303.04 102.19 303.04 91.04 303.04 91.04 303.04 24.09 291.88 24.09" style="fill:#e2162f"/></g></g></svg>