<svg xmlns="http://www.w3.org/2000/svg" viewBox="0 0 327.13 327.13"><g id="Camada_2" data-name="Camada 2"><g id="Camada_1-2" data-name="Camada 1"><rect width="327.13" height="327.13" style="fill:#fff"/><rect x="24.09" y="113.35" width="11.16" height="33.47" style="fill:#e2162f"/><polygon points="35.25 157.99 24.09 157.99 24.09 169.14 35.25 169.14 35.25 191.46 24.09 191.46 24.09 202.62 35.25 202.62 35.25 191.46 46.41 191.46 46.41 169.14 35.25 169.14 35.25 157.99" style="fill:#e2162f"/><polygon points="35.25 24.09 24.09 24.09 24.09 91.04 24.09 91.04 24.09 102.19 35.25 102.19 35.25 102.19 46.41 102.19 46.41 91.04 35.25 91.04 35.25 35.25 46.41 35.25 46.41 24.09 35.25 24.09 35.25 24.09" style="fill:#e2162f"/><polygon points="35.25 224.93 24.09 224.93 24.09 247.25 24.09 280.72 24.09 303.04 35.25 303.04 35.25 303.04 46.41 303.04 46.41 291.88 35.25 291.88 35.25 280.72 35.25 247.25 35.25 236.09 46.41 236.09 46.41 224.93 35.25 224.93 35.25 224.93" style="fill:#e2162f"/><rect x="46.41" y="146.83" width="11.16" height="11.16" style="fill:#e2162f"/><polygon points="57.56 24.09 46.41 24.09 46.41 35.25 57.56 35.25 57.56 35.25 68.72 35.25 68.72 24.09 57.56 24.09 57.56 24.09" style="fill:#e2162f"/><polygon points="57.56 46.41 46.41 46.41 46.41 79.88 57.56 79.88 57.56 79.88 68.72 79.88 68.72 46.41 57.56 46.41 57.56 46.41" style="fill:#e2162f"/><polygon points="57.56 91.04 46.41 91.04 46.41 102.19 57.56 102.19 57.56 102.19 68.72 102.19 68.72 91.04 57.56 91.04 57.56 91.04" style="fill:#e2162f"/><polygon points="57.56 113.35 46.41 113.35 46.41 124.51 57.56 124.51 57.56 135.67 46.41 135.67 46.41 146.83 57.56 146.83 57.56 146.83 68.72 146.83 68.72 113.35 57.56 113.35 57.56 113.35" style="fill:#e2162f"/><polygon points="57.56 202.62 46.41 202.62 46.41 213.78 57.56 213.78 57.56 202.62 68.72 202.62 68.72 191.46 57.56 191.46 57.56 202.62" style="fill:#e2162f"/><polygon points="57.56 224.93 46.41 224.93 46.41 236.09 57.56 236.09 57.56 236.09 68.72 236.09 68.72 224.93 57.56 224.93 57.56 224.93" style="fill:#e2162f"/><polygon points="57.56 247.25 46.41 247.25 46.41 280.72 57.56 280.72 57.56 280.72 68.72 280.72 68.72 247.25 57.56 247.25 57.56 247.25" style="fill:#e2162f"/><polygon points="57.56 291.88 46.41 291.88 46.41 303.04 57.56 303.04 57.56 303.04 68.72 303.04 68.72 291.88 57.56 291.88 57.56 291.88" style="fill:#e2162f"/><rect x="68.72" y="46.41" width="11.16" height="33.47" style="fill:#e2162f"/><rect x="68.72" y="247.25" width="11.16" height="33.47" style="fill:#e2162f"/><polygon points="79.88 24.09 68.72 24.09 68.72 35.25 79.88 35.25 91.04 35.25 91.04 91.04 79.88 91.04 68.72 91.04 68.72 102.19 79.88 102.19 91.04 102.19 102.19 102.19 102.19 91.04 102.19 91.04 102.19 24.09 91.04 24.09 79.88 24.09" style="fill:#e2162f"/><polygon points="79.88 113.35 79.88 135.67 68.72 135.67 68.72 146.83 79.88 146.83 91.04 146.83 102.19 146.83 102.19 135.67 91.04 135.67 91.04 124.51 102.19 124.51 102.19 113.35 91.04 113.35 79.88 113.35" style="fill:#e2162f"/><polygon points="91.04 146.83 79.88 146.83 79.88 180.3 68.72 180.3 68.72 191.46 79.88 191.46 79.88 213.78 91.04 213.78 102.19 213.78 102.19 202.62 91.04 202.62 91.04 191.46 102.19 191.46 102.19 180.3 91.04 180.3 91.04 169.14 102.19 169.14 102.19 157.99 91.04 157.99 91.04 146.83" style="fill:#e2162f"/><polygon points="79.88 224.93 68.72 224.93 68.72 236.09 79.88 236.09 91.04 236.09 91.04 247.25 91.04 280.72 91.04 291.88 79.88 291.88 68.72 291.88 68.72 303.04 79.88 303.04 91.04 303.04 91.04 303.04 102.19 303.04 102.19 280.72 102.19 247.25 102.19 224.93 91.04 224.93 79.88 224.93" style="fill:#e2162f"/><polygon points="113.35 135.67 124.51 135.67 135.67 135.67 135.67 124.51 124.51 124.51 113.35 124.51 113.35 113.35 102.2 113.35 102.2 146.83 113.35 146.83 113.35 135.67" style="fill:#e2162f"/><rect x="113.35" y="91.04" width="11.16" height="22.32" style="fill:#e2162f"/><polygon points="124.51 146.83 113.35 146.83 102.2 146.83 102.2 157.99 113.35 157.99 113.35 180.3 124.51 180.3 135.67 180.3 135.67 169.14 124.51 169.14 124.51 146.83" style="fill:#e2162f"/><polygon points="135.67 35.25 135.67 24.09 124.51 24.09 113.35 24.09 113.35 46.41 124.51 46.41 124.51 35.25 135.67 35.25" style="fill:#e2162f"/><polygon points="135.67 269.56 135.67 258.41 124.51 258.41 113.35 258.41 113.35 280.72 124.51 280.72 124.51 269.56 135.67 269.56" style="fill:#e2162f"/><polygon points="135.67 91.04 135.67 91.04 135.67 124.51 146.83 124.51 146.83 91.04 146.83 91.04 157.99 91.04 157.99 113.35 169.14 113.35 169.14 91.04 169.14 79.88 157.99 79.88 146.83 79.88 146.83 68.72 135.67 68.72 135.67 91.04" style="fill:#e2162f"/><polygon points="146.83 191.46 135.67 191.46 124.51 191.46 113.35 191.46 113.35 202.62 102.2 202.62 102.2 213.78 113.35 213.78 113.35 247.25 124.51 247.25 135.67 247.25 135.67 247.25 146.83 247.25 146.83 236.09 135.67 236.09 135.67 224.93 124.51 224.93 124.51 213.78 135.67 213.78 146.83 213.78 157.99 213.78 157.99 202.62 146.83 202.62 146.83 191.46" style="fill:#e2162f"/><polygon points="135.67 269.57 135.67 280.72 124.51 280.72 124.51 291.88 113.35 291.88 113.35 303.04 124.51 303.04 124.51 303.04 135.67 303.04 135.67 291.88 146.83 291.88 157.99 291.88 157.99 280.73 157.99 280.72 157.99 269.57 146.83 269.57 135.67 269.57" style="fill:#e2162f"/><polygon points="157.99 24.09 146.83 24.09 146.83 46.41 157.99 46.41 157.99 57.56 146.83 57.56 146.83 68.72 157.99 68.72 157.99 68.72 169.14 68.72 169.14 35.25 157.99 35.25 157.99 24.09" style="fill:#e2162f"/><polygon points="135.67 46.41 124.51 46.41 124.51 57.56 135.67 57.56 146.83 57.56 146.83 46.41 135.67 46.41" style="fill:#e2162f"/><rect x="113.35" y="57.56" width="11.16" height="11.16" style="fill:#e2162f"/><rect x="157.99" y="180.3" width="11.16" height="22.32" style="fill:#e2162f"/><polygon points="157.99 124.51 146.83 124.51 146.83 146.83 135.67 146.83 135.67 169.14 146.83 169.14 146.83 180.3 157.99 180.3 157.99 157.99 169.14 157.99 169.14 146.83 157.99 146.83 157.99 124.51" style="fill:#e2162f"/><polygon points="146.83 224.93 146.83 236.09 157.99 236.09 157.99 247.25 169.14 247.25 169.14 213.78 157.99 213.78 157.99 224.93 146.83 224.93" style="fill:#e2162f"/><polygon points="146.83 258.41 157.99 258.41 157.99 269.56 169.14 269.56 169.14 258.41 157.99 258.41 157.99 247.25 146.83 247.25 146.83 258.41" style="fill:#e2162f"/><polygon points="169.15 146.83 169.15 169.14 180.3 169.14 180.3 180.3 191.46 180.3 191.46 146.83 180.3 146.83 169.15 146.83" style="fill:#e2162f"/><polygon points="169.15 213.78 169.15 224.93 180.3 224.93 180.3 236.09 191.46 236.09 191.46 213.78 180.3 213.78 169.15 213.78" style="fill:#e2162f"/><polygon points="180.3 35.25 169.15 35.25 169.15 79.88 180.3 79.88 180.3 68.72 191.46 68.72 191.46 57.56 180.3 57.56 180.3 46.41 191.46 46.41 191.46 24.09 180.3 24.09 180.3 35.25" style="fill:#e2162f"/><polygon points="180.3 124.51 169.15 124.51 169.15 135.67 180.3 135.67 180.3 146.83 191.46 146.83 191.46 91.04 180.3 91.04 180.3 124.51" style="fill:#e2162f"/><rect x="180.3" y="247.25" width="11.16" height="11.16" style="fill:#e2162f"/><polygon points="180.3 280.72 169.15 280.72 169.15 291.88 180.3 291.88 180.3 303.04 191.46 303.04 191.46 280.73 191.46 280.72 191.46 269.57 180.3 269.57 180.3 280.72" style="fill:#e2162f"/><rect x="191.46" y="46.41" width="11.16" height="11.16" style="fill:#e2162f"/><rect x="191.46" y="68.72" width="11.16" height="11.16" style="fill:#e2162f"/><rect x="191.46" y="269.57" width="11.16" height="11.16" style="fill:#e2162f"/><rect x="202.62" y="35.25" width="11.16" height="11.16" style="fill:#e2162f"/><path d="M213.78,158V146.83h11.15V124.51H213.78V91H202.62V102.2H191.46v22.31h11.16v22.32H191.46V180.3h11.16v22.32H191.46v11.16h11.16v44.63h11.16v33.47h11.15V303h22.32V291.88H236.09V258.41h11.16V247.25H213.78V213.78h33.47V191.46H224.93v11.16H213.78V169.14h11.15V180.3h22.32V169.14H236.09V158H213.78Zm0,11.15H202.62V158h11.16Z" style="fill:#e2162f"/><polygon points="224.94 24.09 224.94 91.04 224.94 91.04 224.94 102.19 236.09 102.19 247.25 102.19 247.25 91.04 236.09 91.04 236.09 35.25 247.25 35.25 247.25 24.09 236.09 24.09 224.94 24.09" style="fill:#e2162f"/><rect x="224.93" y="113.35" width="11.16" height="11.16" style="fill:#e2162f"/><rect x="224.93" y="224.93" width="11.16" height="11.16" style="fill:#e2162f"/><polygon points="236.09 146.83 236.09 157.99 247.25 157.99 247.25 146.83 247.25 124.51 236.09 124.51 236.09 146.83" style="fill:#e2162f"/><rect x="247.25" y="135.67" width="11.16" height="11.16" style="fill:#e2162f"/><path d="M280.72,202.62H258.41V158H247.25v55.79h22.32v22.31h11.15v11.16h11.16V236.09H303V191.46H291.88v11.16Zm11.16,22.31H280.72V213.78h11.16Z" style="fill:#e2162f"/><path d="M280.72,258.41H269.57V247.25H258.41V213.78H247.25V303H303V291.88H280.72V280.72h11.16V269.57H303V247.25H291.88v11.16Zm-11.15,22.31v11.16H258.41V269.57h11.16Z" style="fill:#e2162f"/><polygon points="269.57 79.88 280.73 79.88 280.73 46.41 269.57 46.41 258.41 46.41 247.25 46.41 247.25 79.88 258.41 79.88 269.57 79.88" style="fill:#e2162f"/><rect x="258.41" y="113.35" width="11.16" height="11.16" style="fill:#e2162f"/><polygon points="280.73 157.99 280.73 146.83 269.57 146.83 258.41 146.83 258.41 157.99 269.57 157.99 269.57 169.14 280.73 169.14 291.88 169.14 291.88 180.3 303.04 180.3 303.04 157.99 291.88 157.99 280.73 157.99" style="fill:#e2162f"/><polygon points="269.57 180.3 269.57 191.46 280.73 191.46 291.88 191.46 291.88 180.3 280.73 180.3 269.57 180.3" style="fill:#e2162f"/><polygon points="280.73 113.35 280.73 135.67 291.88 135.67 291.88 124.51 303.04 124.51 303.04 113.35 291.88 113.35 280.73 113.35" style="fill:#e2162f"/><polygon points="291.88 24.09 280.73 24.09 269.57 24.09 258.41 24.09 247.25 24.09 247.25 35.25 258.41 35.25 269.57 35.25 280.73 35.25 291.88 35.25 291.88 91.04 280.73 91.04 269.57 91.04 258.41 91.04 247.25 91.04 247.25 102.19 258.41 102.19 269.57 102.19 280.73 102.19 291.88 102.19 303.04 102.19 303.04 91.04 303.04 91.04 303.04 24.09 291.88 24.09" style="fill:#e2162f"/></g></g></svg>