<svg xmlns="http://www.w3.org/2000/svg" xmlns:xlink="http://www.w3.org/1999/xlink" width="72.099" height="72.099" viewBox="0 0 72.099 72.099"><defs><style>.a,.d{fill:none;}.b{fill:#fff;}.c{fill:#e20e2d;}.d{stroke:#e20e2d;stroke-miterlimit:10;stroke-width:0.709px;}.e{clip-path:url(#a);}</style><clipPath id="a"><rect class="a" width="72.099" height="72.099"/></clipPath></defs><g transform="translate(0 0)"><rect class="b" width="72.099" height="72.099" transform="translate(0 0)"/><rect class="c" width="2.197" height="2.199" transform="translate(23.961 4.179)"/><rect class="c" width="2.199" height="2.199" transform="translate(28.357 4.179)"/><rect class="c" width="2.197" height="2.199" transform="translate(30.555 4.179)"/><rect class="c" width="2.199" height="2.199" transform="translate(34.95 4.179)"/><rect class="c" width="2.197" height="2.199" transform="translate(37.149 4.179)"/><rect class="c" width="2.199" height="2.199" transform="translate(43.742 4.179)"/><rect class="c" width="2.197" height="2.199" transform="translate(23.961 6.377)"/><rect class="c" width="2.197" height="2.199" transform="translate(26.158 6.377)"/><rect class="c" width="2.197" height="2.199" transform="translate(30.555 6.377)"/><rect class="c" width="2.197" height="2.199" transform="translate(32.752 6.377)"/><rect class="c" width="2.199" height="2.199" transform="translate(34.95 6.377)"/><rect class="c" width="2.197" height="2.199" transform="translate(39.347 6.377)"/><rect class="c" width="2.199" height="2.199" transform="translate(43.742 6.377)"/><rect class="c" width="2.197" height="2.199" transform="translate(48.139 6.377)"/><rect class="c" width="2.197" height="2.197" transform="translate(23.961 8.575)"/><rect class="c" width="2.199" height="2.197" transform="translate(28.357 8.575)"/><rect class="c" width="2.197" height="2.197" transform="translate(39.347 8.575)"/><rect class="c" width="2.199" height="2.197" transform="translate(43.742 8.575)"/><rect class="c" width="2.197" height="2.199" transform="translate(23.961 10.773)"/><rect class="c" width="2.197" height="2.199" transform="translate(26.158 10.773)"/><rect class="c" width="2.197" height="2.199" transform="translate(37.149 10.773)"/><rect class="c" width="2.197" height="2.199" transform="translate(39.347 10.773)"/><rect class="c" width="2.197" height="2.199" transform="translate(41.544 10.773)"/><rect class="c" width="2.199" height="2.199" transform="translate(43.742 10.773)"/><rect class="c" width="2.197" height="2.199" transform="translate(48.139 10.773)"/><rect class="c" width="2.197" height="2.197" transform="translate(21.763 12.971)"/><rect class="c" width="2.197" height="2.197" transform="translate(23.961 12.971)"/><rect class="c" width="2.197" height="2.197" transform="translate(26.158 12.971)"/><rect class="c" width="2.197" height="2.197" transform="translate(30.555 12.971)"/><rect class="c" width="2.199" height="2.197" transform="translate(34.95 12.971)"/><rect class="c" width="2.197" height="2.197" transform="translate(37.149 12.971)"/><rect class="c" width="2.197" height="2.197" transform="translate(39.347 12.971)"/><rect class="c" width="2.197" height="2.197" transform="translate(45.94 12.971)"/><rect class="c" width="2.197" height="2.199" transform="translate(23.961 15.169)"/><rect class="c" width="2.197" height="2.199" transform="translate(26.158 15.169)"/><rect class="c" width="2.197" height="2.199" transform="translate(32.752 15.169)"/><rect class="c" width="2.199" height="2.199" transform="translate(34.95 15.169)"/><rect class="c" width="2.197" height="2.199" transform="translate(37.149 15.169)"/><rect class="c" width="2.197" height="2.199" transform="translate(41.544 15.169)"/><rect class="c" width="2.199" height="2.199" transform="translate(43.742 15.169)"/><rect class="c" width="2.197" height="2.199" transform="translate(45.94 15.169)"/><rect class="c" width="2.197" height="2.199" transform="translate(48.139 15.169)"/><rect class="c" width="2.197" height="2.197" transform="translate(21.763 17.367)"/><rect class="c" width="2.197" height="2.197" transform="translate(26.158 17.367)"/><rect class="c" width="2.197" height="2.197" transform="translate(30.555 17.367)"/><rect class="c" width="2.199" height="2.197" transform="translate(34.95 17.367)"/><rect class="c" width="2.197" height="2.197" transform="translate(39.347 17.367)"/><rect class="c" width="2.199" height="2.197" transform="translate(43.742 17.367)"/><rect class="c" width="2.197" height="2.197" transform="translate(48.139 17.367)"/><rect class="c" width="2.197" height="2.199" transform="translate(21.763 19.564)"/><rect class="c" width="2.197" height="2.199" transform="translate(23.961 19.564)"/><rect class="c" width="2.197" height="2.199" transform="translate(26.158 19.564)"/><rect class="c" width="2.199" height="2.199" transform="translate(28.357 19.564)"/><rect class="c" width="2.197" height="2.199" transform="translate(32.752 19.564)"/><rect class="c" width="2.199" height="2.199" transform="translate(34.95 19.564)"/><rect class="c" width="2.197" height="2.199" transform="translate(37.149 19.564)"/><rect class="c" width="2.197" height="2.199" transform="translate(45.94 19.564)"/><rect class="c" width="2.197" height="2.199" transform="translate(8.575 21.763)"/><rect class="c" width="2.197" height="2.199" transform="translate(10.773 21.763)"/><rect class="c" width="2.197" height="2.199" transform="translate(17.367 21.763)"/><rect class="c" width="2.199" height="2.199" transform="translate(19.565 21.763)"/><rect class="c" width="2.197" height="2.199" transform="translate(21.763 21.763)"/><rect class="c" width="2.197" height="2.199" transform="translate(23.961 21.763)"/><rect class="c" width="2.197" height="2.199" transform="translate(26.158 21.763)"/><rect class="c" width="2.199" height="2.199" transform="translate(28.357 21.763)"/><rect class="c" width="2.197" height="2.199" transform="translate(37.149 21.763)"/><rect class="c" width="2.199" height="2.199" transform="translate(43.742 21.763)"/><rect class="c" width="2.197" height="2.199" transform="translate(45.94 21.763)"/><rect class="c" width="2.197" height="2.199" transform="translate(48.139 21.763)"/><rect class="c" width="2.199" height="2.199" transform="translate(50.336 21.763)"/><rect class="c" width="2.197" height="2.199" transform="translate(52.535 21.763)"/><rect class="c" width="2.199" height="2.199" transform="translate(56.929 21.763)"/><rect class="c" width="2.199" height="2.197" transform="translate(12.97 23.961)"/><rect class="c" width="2.197" height="2.197" transform="translate(15.169 23.961)"/><rect class="c" width="2.197" height="2.197" transform="translate(23.961 23.961)"/><rect class="c" width="2.199" height="2.197" transform="translate(28.357 23.961)"/><rect class="c" width="2.197" height="2.197" transform="translate(30.555 23.961)"/><rect class="c" width="2.197" height="2.197" transform="translate(32.752 23.961)"/><rect class="c" width="2.199" height="2.197" transform="translate(34.95 23.961)"/><rect class="c" width="2.199" height="2.197" transform="translate(43.742 23.961)"/><rect class="c" width="2.197" height="2.197" transform="translate(45.94 23.961)"/><rect class="c" width="2.197" height="2.197" transform="translate(48.139 23.961)"/><rect class="c" width="2.197" height="2.197" transform="translate(52.535 23.961)"/><rect class="c" width="2.197" height="2.197" transform="translate(54.732 23.961)"/><rect class="c" width="2.199" height="2.197" transform="translate(56.929 23.961)"/><rect class="c" width="2.199" height="2.197" transform="translate(65.721 23.961)"/><rect class="c" width="2.199" height="2.199" transform="translate(6.377 26.159)"/><rect class="c" width="2.197" height="2.199" transform="translate(10.773 26.159)"/><rect class="c" width="2.199" height="2.199" transform="translate(12.97 26.159)"/><rect class="c" width="2.197" height="2.199" transform="translate(15.169 26.159)"/><rect class="c" width="2.197" height="2.199" transform="translate(17.367 26.159)"/><rect class="c" width="2.197" height="2.199" transform="translate(23.961 26.159)"/><rect class="c" width="2.197" height="2.199" transform="translate(48.139 26.159)"/><rect class="c" width="2.197" height="2.199" transform="translate(52.535 26.159)"/><rect class="c" width="2.197" height="2.199" transform="translate(59.129 26.159)"/><rect class="c" width="2.197" height="2.199" transform="translate(61.326 26.159)"/><rect class="c" width="2.197" height="2.199" transform="translate(63.524 26.159)"/><rect class="c" width="2.199" height="2.197" transform="translate(12.97 28.356)"/><rect class="c" width="2.197" height="2.197" transform="translate(21.763 28.356)"/><rect class="c" width="2.197" height="2.197" transform="translate(23.961 28.356)"/><rect class="c" width="2.199" height="2.197" transform="translate(65.721 28.356)"/><rect class="c" width="2.197" height="2.199" transform="translate(8.575 30.555)"/><rect class="c" width="2.199" height="2.199" transform="translate(12.97 30.555)"/><rect class="c" width="2.197" height="2.199" transform="translate(17.367 30.555)"/><rect class="c" width="2.199" height="2.199" transform="translate(19.565 30.555)"/><rect class="c" width="2.197" height="2.199" transform="translate(21.763 30.555)"/><rect class="c" width="2.197" height="2.199" transform="translate(48.139 30.555)"/><rect class="c" width="2.199" height="2.199" transform="translate(50.336 30.555)"/><rect class="c" width="2.197" height="2.199" transform="translate(54.732 30.555)"/><rect class="c" width="2.197" height="2.199" transform="translate(59.129 30.555)"/><rect class="c" width="2.197" height="2.199" transform="translate(61.326 30.555)"/><rect class="c" width="2.197" height="2.199" transform="translate(63.524 30.555)"/><rect class="c" width="2.199" height="2.199" transform="translate(65.721 30.555)"/><rect class="c" width="2.199" height="2.199" transform="translate(6.377 32.752)"/><rect class="c" width="2.197" height="2.199" transform="translate(8.575 32.752)"/><rect class="c" width="2.197" height="2.199" transform="translate(10.773 32.752)"/><rect class="c" width="2.199" height="2.199" transform="translate(12.97 32.752)"/><rect class="c" width="2.199" height="2.199" transform="translate(19.565 32.752)"/><rect class="c" width="2.197" height="2.199" transform="translate(45.94 32.752)"/><rect class="c" width="2.197" height="2.199" transform="translate(52.535 32.752)"/><rect class="c" width="2.197" height="2.199" transform="translate(54.732 32.752)"/><rect class="c" width="2.197" height="2.199" transform="translate(59.129 32.752)"/><rect class="c" width="2.197" height="2.199" transform="translate(61.326 32.752)"/><rect class="c" width="2.199" height="2.199" transform="translate(65.721 32.752)"/><rect class="c" width="2.197" height="2.197" transform="translate(4.178 34.951)"/><rect class="c" width="2.199" height="2.197" transform="translate(6.377 34.951)"/><rect class="c" width="2.197" height="2.197" transform="translate(15.169 34.951)"/><rect class="c" width="2.197" height="2.197" transform="translate(17.367 34.951)"/><rect class="c" width="2.199" height="2.197" transform="translate(19.565 34.951)"/><rect class="c" width="2.197" height="2.197" transform="translate(21.763 34.951)"/><rect class="c" width="2.197" height="2.197" transform="translate(45.94 34.951)"/><rect class="c" width="2.197" height="2.197" transform="translate(48.139 34.951)"/><rect class="c" width="2.197" height="2.197" transform="translate(52.535 34.951)"/><rect class="c" width="2.197" height="2.197" transform="translate(54.732 34.951)"/><rect class="c" width="2.199" height="2.197" transform="translate(56.929 34.951)"/><rect class="c" width="2.197" height="2.197" transform="translate(59.129 34.951)"/><rect class="c" width="2.197" height="2.197" transform="translate(63.524 34.951)"/><rect class="c" width="2.199" height="2.197" transform="translate(65.721 34.951)"/><rect class="c" width="2.199" height="2.199" transform="translate(6.377 37.148)"/><rect class="c" width="2.199" height="2.199" transform="translate(12.97 37.148)"/><rect class="c" width="2.197" height="2.199" transform="translate(45.94 37.148)"/><rect class="c" width="2.197" height="2.199" transform="translate(48.139 37.148)"/><rect class="c" width="2.199" height="2.199" transform="translate(50.336 37.148)"/><rect class="c" width="2.199" height="2.199" transform="translate(56.929 37.148)"/><rect class="c" width="2.197" height="2.199" transform="translate(59.129 37.148)"/><rect class="c" width="2.199" height="2.199" transform="translate(65.721 37.148)"/><rect class="c" width="2.197" height="2.197" transform="translate(4.178 39.347)"/><rect class="c" width="2.199" height="2.197" transform="translate(6.377 39.347)"/><rect class="c" width="2.197" height="2.197" transform="translate(15.169 39.347)"/><rect class="c" width="2.197" height="2.197" transform="translate(17.367 39.347)"/><rect class="c" width="2.197" height="2.197" transform="translate(23.961 39.347)"/><rect class="c" width="2.197" height="2.197" transform="translate(48.139 39.347)"/><rect class="c" width="2.199" height="2.197" transform="translate(50.336 39.347)"/><rect class="c" width="2.197" height="2.197" transform="translate(54.732 39.347)"/><rect class="c" width="2.199" height="2.197" transform="translate(56.929 39.347)"/><rect class="c" width="2.197" height="2.197" transform="translate(59.129 39.347)"/><rect class="c" width="2.197" height="2.197" transform="translate(63.524 39.347)"/><rect class="c" width="2.197" height="2.199" transform="translate(15.169 41.544)"/><rect class="c" width="2.197" height="2.199" transform="translate(23.961 41.544)"/><rect class="c" width="2.197" height="2.199" transform="translate(48.139 41.544)"/><rect class="c" width="2.199" height="2.199" transform="translate(50.336 41.544)"/><rect class="c" width="2.197" height="2.199" transform="translate(54.732 41.544)"/><rect class="c" width="2.197" height="2.199" transform="translate(59.129 41.544)"/><rect class="c" width="2.197" height="2.199" transform="translate(61.326 41.544)"/><rect class="c" width="2.197" height="2.199" transform="translate(4.178 43.742)"/><rect class="c" width="2.197" height="2.199" transform="translate(8.575 43.742)"/><rect class="c" width="2.197" height="2.199" transform="translate(10.773 43.742)"/><rect class="c" width="2.197" height="2.199" transform="translate(17.367 43.742)"/><rect class="c" width="2.199" height="2.199" transform="translate(19.565 43.742)"/><rect class="c" width="2.197" height="2.199" transform="translate(21.763 43.742)"/><rect class="c" width="2.197" height="2.199" transform="translate(23.961 43.742)"/><rect class="c" width="2.197" height="2.199" transform="translate(52.535 43.742)"/><rect class="c" width="2.197" height="2.199" transform="translate(59.129 43.742)"/><rect class="c" width="2.197" height="2.197" transform="translate(8.575 45.941)"/><rect class="c" width="2.197" height="2.197" transform="translate(10.773 45.941)"/><rect class="c" width="2.199" height="2.197" transform="translate(19.565 45.941)"/><rect class="c" width="2.199" height="2.197" transform="translate(28.357 45.941)"/><rect class="c" width="2.199" height="2.197" transform="translate(34.95 45.941)"/><rect class="c" width="2.197" height="2.197" transform="translate(37.149 45.941)"/><rect class="c" width="2.197" height="2.197" transform="translate(39.347 45.941)"/><rect class="c" width="2.199" height="2.197" transform="translate(43.742 45.941)"/><rect class="c" width="2.197" height="2.197" transform="translate(45.94 45.941)"/><rect class="c" width="2.199" height="2.197" transform="translate(50.336 45.941)"/><rect class="c" width="2.197" height="2.197" transform="translate(52.535 45.941)"/><rect class="c" width="2.199" height="2.197" transform="translate(56.929 45.941)"/><rect class="c" width="2.197" height="2.197" transform="translate(61.326 45.941)"/><rect class="c" width="2.197" height="2.197" transform="translate(63.524 45.941)"/><rect class="c" width="2.199" height="2.197" transform="translate(65.721 45.941)"/><rect class="c" width="2.199" height="2.199" transform="translate(6.377 48.138)"/><rect class="c" width="2.199" height="2.199" transform="translate(12.97 48.138)"/><rect class="c" width="2.197" height="2.199" transform="translate(15.169 48.138)"/><rect class="c" width="2.197" height="2.199" transform="translate(17.367 48.138)"/><rect class="c" width="2.197" height="2.199" transform="translate(26.158 48.138)"/><rect class="c" width="2.197" height="2.199" transform="translate(32.752 48.138)"/><rect class="c" width="2.197" height="2.199" transform="translate(39.347 48.138)"/><rect class="c" width="2.197" height="2.199" transform="translate(41.544 48.138)"/><rect class="c" width="2.199" height="2.199" transform="translate(43.742 48.138)"/><rect class="c" width="2.197" height="2.199" transform="translate(48.139 48.138)"/><rect class="c" width="2.199" height="2.199" transform="translate(50.336 48.138)"/><rect class="c" width="2.197" height="2.199" transform="translate(52.535 48.138)"/><rect class="c" width="2.197" height="2.199" transform="translate(54.732 48.138)"/><rect class="c" width="2.199" height="2.199" transform="translate(56.929 48.138)"/><rect class="c" width="2.197" height="2.199" transform="translate(61.326 48.138)"/><rect class="c" width="2.197" height="2.199" transform="translate(63.524 48.138)"/><rect class="c" width="2.199" height="2.199" transform="translate(65.721 48.138)"/><rect class="c" width="2.197" height="2.197" transform="translate(21.763 50.337)"/><rect class="c" width="2.197" height="2.197" transform="translate(26.158 50.337)"/><rect class="c" width="2.199" height="2.197" transform="translate(28.357 50.337)"/><rect class="c" width="2.197" height="2.197" transform="translate(30.555 50.337)"/><rect class="c" width="2.197" height="2.197" transform="translate(32.752 50.337)"/><rect class="c" width="2.199" height="2.197" transform="translate(34.95 50.337)"/><rect class="c" width="2.197" height="2.197" transform="translate(37.149 50.337)"/><rect class="c" width="2.197" height="2.197" transform="translate(45.94 50.337)"/><rect class="c" width="2.197" height="2.197" transform="translate(48.139 50.337)"/><rect class="c" width="2.199" height="2.197" transform="translate(56.929 50.337)"/><rect class="c" width="2.197" height="2.197" transform="translate(59.129 50.337)"/><rect class="c" width="2.199" height="2.197" transform="translate(65.721 50.337)"/><rect class="c" width="2.197" height="2.199" transform="translate(21.763 52.534)"/><rect class="c" width="2.197" height="2.199" transform="translate(23.961 52.534)"/><rect class="c" width="2.199" height="2.199" transform="translate(28.357 52.534)"/><rect class="c" width="2.197" height="2.199" transform="translate(32.752 52.534)"/><rect class="c" width="2.197" height="2.199" transform="translate(37.149 52.534)"/><rect class="c" width="2.197" height="2.199" transform="translate(39.347 52.534)"/><rect class="c" width="2.197" height="2.199" transform="translate(45.94 52.534)"/><rect class="c" width="2.197" height="2.199" transform="translate(48.139 52.534)"/><rect class="c" width="2.197" height="2.199" transform="translate(52.535 52.534)"/><rect class="c" width="2.199" height="2.199" transform="translate(56.929 52.534)"/><rect class="c" width="2.197" height="2.199" transform="translate(61.326 52.534)"/><rect class="c" width="2.197" height="2.199" transform="translate(63.524 52.534)"/><rect class="c" width="2.199" height="2.197" transform="translate(28.357 54.732)"/><rect class="c" width="2.197" height="2.197" transform="translate(41.544 54.732)"/><rect class="c" width="2.199" height="2.197" transform="translate(43.742 54.732)"/><rect class="c" width="2.197" height="2.197" transform="translate(48.139 54.732)"/><rect class="c" width="2.199" height="2.197" transform="translate(56.929 54.732)"/><rect class="c" width="2.197" height="2.199" transform="translate(23.961 56.93)"/><rect class="c" width="2.197" height="2.199" transform="translate(30.555 56.93)"/><rect class="c" width="2.199" height="2.199" transform="translate(34.95 56.93)"/><rect class="c" width="2.197" height="2.199" transform="translate(37.149 56.93)"/><rect class="c" width="2.199" height="2.199" transform="translate(43.742 56.93)"/><rect class="c" width="2.197" height="2.199" transform="translate(48.139 56.93)"/><rect class="c" width="2.199" height="2.199" transform="translate(50.336 56.93)"/><rect class="c" width="2.197" height="2.199" transform="translate(52.535 56.93)"/><rect class="c" width="2.197" height="2.199" transform="translate(54.732 56.93)"/><rect class="c" width="2.199" height="2.199" transform="translate(56.929 56.93)"/><rect class="c" width="2.197" height="2.199" transform="translate(59.129 56.93)"/><rect class="c" width="2.197" height="2.199" transform="translate(61.326 56.93)"/><rect class="c" width="2.199" height="2.199" transform="translate(65.721 56.93)"/><rect class="c" width="2.197" height="2.199" transform="translate(21.763 59.128)"/><rect class="c" width="2.199" height="2.199" transform="translate(28.357 59.128)"/><rect class="c" width="2.199" height="2.199" transform="translate(34.95 59.128)"/><rect class="c" width="2.197" height="2.199" transform="translate(39.347 59.128)"/><rect class="c" width="2.197" height="2.199" transform="translate(45.94 59.128)"/><rect class="c" width="2.199" height="2.199" transform="translate(56.929 59.128)"/><rect class="c" width="2.197" height="2.199" transform="translate(59.129 59.128)"/><rect class="c" width="2.197" height="2.199" transform="translate(61.326 59.128)"/><rect class="c" width="2.197" height="2.199" transform="translate(63.524 59.128)"/><rect class="c" width="2.197" height="2.197" transform="translate(21.763 61.326)"/><rect class="c" width="2.197" height="2.197" transform="translate(26.158 61.326)"/><rect class="c" width="2.199" height="2.197" transform="translate(34.95 61.326)"/><rect class="c" width="2.199" height="2.197" transform="translate(43.742 61.326)"/><rect class="c" width="2.197" height="2.197" transform="translate(48.139 61.326)"/><rect class="c" width="2.197" height="2.197" transform="translate(54.732 61.326)"/><rect class="c" width="2.197" height="2.197" transform="translate(59.129 61.326)"/><rect class="c" width="2.199" height="2.197" transform="translate(65.721 61.326)"/><rect class="c" width="2.197" height="2.199" transform="translate(26.158 63.523)"/><rect class="c" width="2.197" height="2.199" transform="translate(32.752 63.523)"/><rect class="c" width="2.197" height="2.199" transform="translate(39.347 63.523)"/><rect class="c" width="2.197" height="2.199" transform="translate(41.544 63.523)"/><rect class="c" width="2.199" height="2.199" transform="translate(43.742 63.523)"/><rect class="c" width="2.197" height="2.199" transform="translate(48.139 63.523)"/><rect class="c" width="2.199" height="2.199" transform="translate(50.336 63.523)"/><rect class="c" width="2.199" height="2.199" transform="translate(56.929 63.523)"/><rect class="c" width="2.197" height="2.199" transform="translate(63.524 63.523)"/><rect class="c" width="2.197" height="2.197" transform="translate(32.752 65.722)"/><rect class="c" width="2.197" height="2.197" transform="translate(37.149 65.722)"/><rect class="c" width="2.197" height="2.197" transform="translate(39.347 65.722)"/><rect class="c" width="2.197" height="2.197" transform="translate(41.544 65.722)"/><rect class="c" width="2.197" height="2.197" transform="translate(48.139 65.722)"/><rect class="c" width="2.197" height="2.197" transform="translate(54.732 65.722)"/><rect class="c" width="2.197" height="2.197" transform="translate(63.524 65.722)"/><path class="c" d="M16.864,3.787H3.786V19.172H19.172V3.787Zm0,13.077H6.094V6.095H16.864Z" transform="translate(0.392 0.393)"/><path class="c" d="M60.677,3.787H47.6V19.172H62.985V3.787Zm0,13.077H49.908V6.095h10.77Z" transform="translate(4.935 0.393)"/><path class="c" d="M16.864,47.6H3.786V62.985H19.172V47.6Zm0,13.077H6.094V49.908H16.864Z" transform="translate(0.392 4.935)"/><rect class="c" width="6.594" height="6.593" transform="translate(8.575 8.575)"/><rect class="c" width="6.594" height="6.593" transform="translate(56.929 8.575)"/><rect class="c" width="6.594" height="6.594" transform="translate(8.575 56.93)"/><rect class="b" width="24.274" height="24.274" transform="translate(23.912 23.912)"/><rect class="d" width="24.274" height="24.274" transform="translate(23.912 23.912)"/><g transform="translate(0 0)"><g class="e"><path class="c" d="M41.46,35.158a.322.322,0,0,1,.07.11.327.327,0,0,1,.025.128.344.344,0,1,1-.594-.238.344.344,0,0,1,.251-.106.348.348,0,0,1,.248.106m-.536.116a.323.323,0,0,0-.024.123.307.307,0,0,0,.1.225.309.309,0,0,0,.427,0,.318.318,0,0,0,.1-.226.3.3,0,0,0-.025-.123.318.318,0,0,0-.07-.1.313.313,0,0,0-.436,0,.334.334,0,0,0-.066.1m.472.33H41.3l-.1-.172h-.075V35.6h-.082v-.415h.18q.146,0,.146.119a.108.108,0,0,1-.077.115Zm-.269-.249h.116c.035,0,.051-.017.052-.046s-.017-.04-.051-.042h-.117Z" transform="translate(4.236 3.634)"/><path class="c" d="M27.77,25.507a.065.065,0,0,0-.046.11l1.138,1.138h.008l2.97,2.97.882-.884-2.085-2.086h5.172l-5.86,5.863a1.368,1.368,0,0,1-2.334-.967V28.12a.281.281,0,0,0-.082-.2l-1-1a.1.1,0,0,0-.162.067v4.7A2.6,2.6,0,0,0,30.8,33.527l7.91-7.91a.065.065,0,0,0-.046-.11Z" transform="translate(2.733 2.645)"/><path class="c" d="M40.185,28.659,38.8,27.266a.081.081,0,0,0-.115,0L37.3,28.659a.082.082,0,0,0,.058.139h.785V31.47a1.367,1.367,0,0,1-2.334.967l-1.889-1.891-.883.883,1.917,1.918a2.6,2.6,0,0,0,4.438-1.839V28.8h.738a.082.082,0,0,0,.058-.139" transform="translate(3.424 2.824)"/><path class="c" d="M32.094,35.091h-1.12l-1.441,3.645-.884-3.645H27.283L26.4,38.736l-1.442-3.645H23.838L25.9,40.308v0h1.19l.877-3.615.876,3.615h1.19v0Z" transform="translate(2.471 3.638)"/><path class="c" d="M32.365,35.09,30.3,40.31h1.12l.455-1.15h2.1l.455,1.15h1.12l-2.065-5.22Zm-.078,3.03.64-1.618.64,1.618Z" transform="translate(3.141 3.638)"/><path class="c" d="M37.651,35.091l-1.2,1.566-1.205-1.566H33.929l2,2.6V40.31h1.041V37.689l2-2.6Z" transform="translate(3.517 3.638)"/><path class="c" d="M40.856,35.09H39.811l-2.329,3.03h0V39.16h2.334v1.15h1.041V39.16h.7V38.12h-.7Zm-1.041,3.03H38.794l1.021-1.327Z" transform="translate(3.886 3.638)"/></g></g></g></svg>