<svg xmlns="http://www.w3.org/2000/svg" width="20.585" height="20.585" viewBox="0 0 20.585 20.585"><defs><style>.a{fill:#fff;}.b{fill:#e20e2d;}</style></defs><path class="a" d="M0,15.2V5.384A5.4,5.4,0,0,1,5.384,0H15.2a5.4,5.4,0,0,1,5.384,5.384V15.2A5.4,5.4,0,0,1,15.2,20.584H11.9l-1.728-.421-1.488.421h-3.3A5.4,5.4,0,0,1,0,15.2"/><path class="b" d="M16.852,15.439l.455-2.975H14.454v-1.93a1.487,1.487,0,0,1,1.677-1.607h1.3V6.393a15.868,15.868,0,0,0-2.3-.2,3.631,3.631,0,0,0-3.887,4v2.267H8.625v2.975h2.613v6.979h3.216V15.439Z" transform="translate(-2.554 -1.833)"/></svg>