<svg xmlns="http://www.w3.org/2000/svg" width="20.584" height="20.584" viewBox="0 0 20.584 20.584"><defs><style>.a{fill:#fff;}.b{fill:#e20e2d;}</style></defs><g transform="translate(0)"><path class="a" d="M42.5,15.2V5.385A5.4,5.4,0,0,1,47.883,0H57.7a5.4,5.4,0,0,1,5.384,5.384V15.2A5.4,5.4,0,0,1,57.7,20.585H47.883A5.4,5.4,0,0,1,42.5,15.2" transform="translate(-42.499 -0.001)"/><g transform="translate(4.258 4.257)"><path class="b" d="M61.36,9.111a.707.707,0,1,0,.708.707.707.707,0,0,0-.708-.707" transform="translate(-52.132 -6.956)"/><path class="b" d="M55.94,10.4a2.972,2.972,0,1,0,2.972,2.971A2.975,2.975,0,0,0,55.94,10.4m0,4.875a1.9,1.9,0,1,1,1.9-1.9,1.906,1.906,0,0,1-1.9,1.9" transform="translate(-49.857 -7.337)"/><path class="b" d="M56.991,18.117H52.172a3.629,3.629,0,0,1-3.624-3.625V9.674a3.629,3.629,0,0,1,3.624-3.625h4.818a3.628,3.628,0,0,1,3.624,3.625v4.818a3.628,3.628,0,0,1-3.624,3.625M52.172,7.184a2.492,2.492,0,0,0-2.489,2.49v4.818a2.492,2.492,0,0,0,2.489,2.49h4.818a2.492,2.492,0,0,0,2.49-2.49V9.674a2.492,2.492,0,0,0-2.49-2.49Z" transform="translate(-48.548 -6.049)"/></g></g></svg>