<svg xmlns="http://www.w3.org/2000/svg" width="124.377" height="22.264" viewBox="0 0 124.377 22.264"><defs><style>.a{fill:#e20e2d;}</style></defs><g transform="translate(-5713.025 -94.362)"><g transform="translate(5713.025 94.362)"><path class="a" d="M5716.586,94.362a.164.164,0,0,0-.116.281l2.884,2.883h.02l7.522,7.523,2.237-2.237-5.286-5.286h13.107L5722.1,112.379a3.464,3.464,0,0,1-5.913-2.449v-8.946a.708.708,0,0,0-.207-.5l-2.546-2.545a.241.241,0,0,0-.412.17v11.918a6.587,6.587,0,0,0,11.245,4.657l20.04-20.041a.164.164,0,0,0-.116-.281Z" transform="translate(-5713.025 -94.362)"/><path class="a" d="M5789.064,113.031l-3.513-3.527a.207.207,0,0,0-.293,0l-3.511,3.527a.207.207,0,0,0,.146.353h1.99v6.771a3.464,3.464,0,0,1-5.913,2.449l-4.79-4.789-2.237,2.237,4.857,4.857a6.587,6.587,0,0,0,11.245-4.657v-6.868h1.871A.207.207,0,0,0,5789.064,113.031Z" transform="translate(-5752.296 -104.588)"/></g><g transform="translate(5756.326 97.1)"><g transform="translate(78.294)"><path class="a" d="M6093.094,103.3a1.319,1.319,0,0,1,.284.449,1.352,1.352,0,0,1,.1.514,1.391,1.391,0,1,1-2.4-.963,1.4,1.4,0,0,1,2.015,0Zm-2.164.468a1.264,1.264,0,0,0-.1.495,1.235,1.235,0,0,0,.392.91,1.254,1.254,0,0,0,.859.349,1.241,1.241,0,0,0,.867-.345,1.247,1.247,0,0,0,.292-1.408,1.207,1.207,0,0,0-.285-.414,1.253,1.253,0,0,0-.863-.349,1.247,1.247,0,0,0-1.163.764Zm1.911,1.332h-.383l-.4-.691h-.3v.691h-.333v-1.673h.729c.391,0,.587.161.587.48a.434.434,0,0,1-.308.464Zm-1.09-1.005h.468c.138,0,.207-.065.211-.184s-.073-.165-.207-.173h-.472Z" transform="translate(-6090.695 -102.867)"/></g><g transform="translate(0)"><path class="a" d="M6010.831,112.621h-2.26v-9.754h-3.344v.007l-7.495,9.747h0v3.344h7.5v3.69h3.344v-3.69h2.26Zm-8.88,0,3.276-4.261v4.261Z" transform="translate(-5949.368 -102.867)"/><path class="a" d="M5970.556,102.867l-3.888,5.056-3.888-5.056h-4.218l6.434,8.367v8.42h3.344v-8.42l6.434-8.367Z" transform="translate(-5922.81 -102.867)"/><path class="a" d="M5931.959,119.655h3.6l-6.636-16.777,0-.011h-3.6l0,.011-6.636,16.777h3.6l1.459-3.69h6.757Zm-6.894-7.034,2.056-5.2,2.056,5.2Z" transform="translate(-5895.773 -102.867)"/><path class="a" d="M5874.05,102.867h-3.6l-4.641,11.733-2.846-11.733h-4.37l-2.846,11.733-4.64-11.733h-3.6l6.636,16.777,0,.011h3.82l2.815-11.61,2.815,11.61h3.82l0-.011Z" transform="translate(-5847.516 -102.867)"/><path class="a" d="M6053.565,102.867v9.651a3.792,3.792,0,0,1-3.792,3.792h0a3.792,3.792,0,0,1-3.792-3.792v-9.651h-3.344v9.651a7.136,7.136,0,0,0,7.136,7.136h0a7.137,7.137,0,0,0,7.136-7.136v-9.651Z" transform="translate(-5979.816 -102.867)"/></g></g></g></svg>