<svg xmlns="http://www.w3.org/2000/svg" xmlns:xlink="http://www.w3.org/1999/xlink" width="48.988" height="49.014" viewBox="0 0 48.988 49.014">
  <defs>
    <style>
      .cls-1 {
        fill: #e20e2d;
      }

      .cls-2 {
        clip-path: url(#clip-path);
      }
    </style>
    <clipPath id="clip-path">
      <rect id="Retângulo_349" data-name="Retângulo 349" class="cls-1" width="48.988" height="49.014"/>
    </clipPath>
  </defs>
  <g id="valores" transform="translate(-189 57.356)">
    <g id="Grupo_105" data-name="Grupo 105" class="cls-2" transform="translate(189 -57.356)">
      <path id="Caminho_206" data-name="Caminho 206" class="cls-1" d="M105.549,90.392a15.26,15.26,0,1,0,15.26,15.26,15.275,15.275,0,0,0-15.26-15.26m6.885,12.186-8.1,7.64a1.037,1.037,0,0,1-1.44-.03l-4.239-4.351a1.018,1.018,0,1,1,1.461-1.42l3.534,3.636,7.364-6.956a1.042,1.042,0,0,1,1.461.041,1.018,1.018,0,0,1-.041,1.44" transform="translate(-81.05 -81.143)"/>
      <path id="Caminho_207" data-name="Caminho 207" class="cls-1" d="M45.5,18.892l.337-6.057a1.019,1.019,0,0,0-.562-.97L39.882,9.138,37.155,3.744a1.037,1.037,0,0,0-.97-.562l-6.068.327L25.061.169a1.021,1.021,0,0,0-1.124,0L18.881,3.51l-6.057-.337a1.018,1.018,0,0,0-.97.562L9.126,9.128,3.733,11.855a1.035,1.035,0,0,0-.562.97l.337,6.057L.168,23.938a1.021,1.021,0,0,0,0,1.124L3.5,30.128l-.337,6.057a1.018,1.018,0,0,0,.562.97l5.393,2.727,2.727,5.393a1.035,1.035,0,0,0,.97.562l6.057-.337,5.056,3.34a1,1,0,0,0,1.124,0l5.056-3.34,6.057.337a1.019,1.019,0,0,0,.97-.562l2.727-5.393,5.393-2.727a1.036,1.036,0,0,0,.562-.97l-.337-6.057,3.34-5.056a1.021,1.021,0,0,0,0-1.124Zm-1.9,10.4a.96.96,0,0,0-.163.623l.316,5.73-5.1,2.574a1.008,1.008,0,0,0-.449.45l-2.574,5.1-5.73-.316a1.116,1.116,0,0,0-.623.163L24.5,46.768l-4.78-3.157a1.011,1.011,0,0,0-.562-.174h-.051l-5.73.317-2.574-5.1a1.007,1.007,0,0,0-.45-.449L5.245,35.644l.317-5.73a1.117,1.117,0,0,0-.164-.623L2.242,24.51,5.4,19.73a.956.956,0,0,0,.164-.623l-.317-5.73,5.1-2.574a1.007,1.007,0,0,0,.449-.449l2.574-5.1,5.73.317a1.122,1.122,0,0,0,.623-.164L24.5,2.253l4.78,3.156a.958.958,0,0,0,.623.164l5.73-.317,2.574,5.1a1.007,1.007,0,0,0,.449.449l5.1,2.574-.316,5.73a1.119,1.119,0,0,0,.163.623l3.157,4.78Z" transform="translate(0 -0.001)"/>
    </g>
  </g>
</svg>
