<svg xmlns="http://www.w3.org/2000/svg" xmlns:xlink="http://www.w3.org/1999/xlink" width="50" height="44" viewBox="0 0 50 44">
  <defs>
    <style>
      .cls-1 {
        fill: #e20e2d;
      }

      .cls-2 {
        clip-path: url(#clip-path);
      }
    </style>
    <clipPath id="clip-path">
      <rect id="Retângulo_348" data-name="Retângulo 348" class="cls-1" width="50" height="44" transform="translate(0 -0.359)"/>
    </clipPath>
  </defs>
  <g id="visao-icon" transform="translate(0 0.359)">
    <g id="Grupo_103" data-name="Grupo 103" class="cls-2">
      <path id="Caminho_205" data-name="Caminho 205" class="cls-1" d="M46.195,16.132l-3.5-11.68A6.208,6.208,0,0,0,36.708,0H13.252A6.208,6.208,0,0,0,7.269,4.452l-3.5,11.68A6.249,6.249,0,0,0,0,21.858v12.49a3.123,3.123,0,0,0,3.123,3.123h0v3.122a3.123,3.123,0,0,0,3.123,3.123H9.367a3.123,3.123,0,0,0,3.123-3.123V37.471H37.47v3.122a3.123,3.123,0,0,0,3.123,3.123h3.123a3.123,3.123,0,0,0,3.123-3.123V37.472h0a3.123,3.123,0,0,0,3.123-3.123V21.858a6.249,6.249,0,0,0-3.766-5.726M13.252,6.245H36.708l2.81,9.368H10.441Zm-.762,23.42a3.123,3.123,0,1,1,3.123-3.123,3.123,3.123,0,0,1-3.123,3.123m24.981,0a3.123,3.123,0,1,1,3.123-3.123,3.123,3.123,0,0,1-3.123,3.123" transform="translate(0.001)"/>
    </g>
  </g>
</svg>
