<svg xmlns="http://www.w3.org/2000/svg" xmlns:xlink="http://www.w3.org/1999/xlink" width="48.401" height="50.442" viewBox="0 0 48.401 50.442"><defs><style>.a{fill:#e20e2d;}.b{clip-path:url(#a);}</style><clipPath id="a"><rect class="a" width="48.401" height="50.442"/></clipPath></defs><g class="b"><path class="a" d="M46.068,25.875a1.479,1.479,0,0,1,0-1.307l1.881-3.849A4.379,4.379,0,0,0,46.06,14.9L42.276,12.9a1.479,1.479,0,0,1-.768-1.057l-.74-4.219a4.379,4.379,0,0,0-4.946-3.594l-4.242.6a1.478,1.478,0,0,1-1.243-.4L27.258,1.244a4.379,4.379,0,0,0-6.114,0L18.065,4.223a1.479,1.479,0,0,1-1.243.4l-4.241-.6A4.378,4.378,0,0,0,7.635,7.62l-.74,4.219A1.478,1.478,0,0,1,6.126,12.9L2.342,14.9A4.379,4.379,0,0,0,.453,20.72l1.881,3.849a1.478,1.478,0,0,1,0,1.307L.453,29.723a4.379,4.379,0,0,0,1.889,5.815l3.784,2.008A1.478,1.478,0,0,1,6.894,38.6l.74,4.219a4.376,4.376,0,0,0,4.317,3.638,4.485,4.485,0,0,0,.63-.045l4.241-.6a1.478,1.478,0,0,1,1.243.4L21.144,49.2a4.379,4.379,0,0,0,6.114,0l3.079-2.978a1.48,1.48,0,0,1,1.243-.4l4.242.6a4.378,4.378,0,0,0,4.946-3.594l.74-4.219a1.479,1.479,0,0,1,.768-1.057l3.784-2.008a4.379,4.379,0,0,0,1.889-5.815ZM18.382,12.13a5.334,5.334,0,1,1-5.334,5.334,5.34,5.34,0,0,1,5.334-5.334M15.629,35.85a1.455,1.455,0,0,1-2.057-2.057l19.2-19.2A1.455,1.455,0,0,1,34.83,16.65Zm14.39,2.463a5.334,5.334,0,1,1,5.334-5.334,5.34,5.34,0,0,1-5.334,5.334" transform="translate(0 0)"/></g></svg>