<svg xmlns="http://www.w3.org/2000/svg" xmlns:xlink="http://www.w3.org/1999/xlink" width="49" height="49" viewBox="0 0 49 49"><defs><style>.a{fill:#e20e2d;}.b{clip-path:url(#a);}</style><clipPath id="a"><rect class="a" width="49" height="49" transform="translate(0 0)"/></clipPath></defs><g class="b" transform="translate(0 0)"><path class="a" d="M24.35,0A24.35,24.35,0,1,0,48.7,24.35,24.351,24.351,0,0,0,24.35,0m0,6.088A18.245,18.245,0,0,1,41.5,18.263H7.2A18.247,18.247,0,0,1,24.35,6.088m0,21.306a3.044,3.044,0,1,1,3.044-3.044,3.042,3.042,0,0,1-3.044,3.044M6.088,24.35c8.317,0,15.053,8.014,15.195,17.954A18.259,18.259,0,0,1,6.088,24.35M27.418,42.3C27.561,32.365,34.3,24.35,42.613,24.35A18.259,18.259,0,0,1,27.418,42.3" transform="translate(0 0.299)"/></g></svg>