<svg xmlns="http://www.w3.org/2000/svg" width="37.939" height="48.619" viewBox="0 0 37.939 48.619"><defs><style>.a{fill:#e20e2d;}</style></defs><g transform="translate(-672.632 -1520.308)"><path class="a" d="M102.911,278.974v9.485a3.16,3.16,0,0,0,3.162,3.162h31.616a3.16,3.16,0,0,0,3.162-3.162v-9.485a9.481,9.481,0,0,0-9.485-9.485h-.811a.831.831,0,0,0-.807.769,7.9,7.9,0,0,1-15.734,0,.832.832,0,0,0-.807-.769H112.4a9.485,9.485,0,0,0-9.485,9.485" transform="translate(569.721 1277.307)"/><path class="a" d="M159.573,137.571c6.28,0,11.373-5.82,11.373-13s-5.093-13-11.373-13-11.373,5.819-11.373,13,5.093,13,11.373,13m0-13c2.967,0,5.442-1.5,6.223-3.541A8.108,8.108,0,1,1,151.45,126.2c0-1.974,5.156-1.625,8.123-1.625" transform="translate(532.029 1408.731)"/></g></svg>